<svg id="Layer_1" data-name="Layer 1" xmlns="http://www.w3.org/2000/svg" viewBox="0 0 52 107.88"><defs><style>.cls-1{fill:#e8e8e8;}.cls-2{fill:#c7af41;}.cls-3{fill:#ddc252;}</style></defs><title>beer</title><path class="cls-1" d="M6750.21,6778.16c.41,26.54,3.08,26.12,1.4,35.53l-.12.52a91.92,91.92,0,0,1-9,23.88,75.69,75.69,0,0,0-8.73,24.34c-1.51,8.89,1.35,10.8,10.6,11.18a60,60,0,0,1,7.13,1.13l-.18,2.26h-45.34c-.1-.8-.21-1.6-.32-2.4,2.54-.28,5.09-.84,7.61-1h.11a13.69,13.69,0,0,0,1.57,0c5.82.29,8.52-2.8,8-8.29a82.76,82.76,0,0,0-3.26-17,42,42,0,0,0-6-12.32c-5.83-9.38-11.06-26-12-40.05h0c-.1-10.24,2-19.09,7-22.77a63.48,63.48,0,0,1,6.38-1.32c1.33-.09,3.05-.2,5.3-.38,19.91-1.61,23.56-3.4,27.34-.57a7.8,7.8,0,0,1,2.21,2.56A20.51,20.51,0,0,1,6750.21,6778.16Z" transform="translate(-6701.5 -6769.11)"/><path class="cls-1" d="M6750.21,6778.16a20.51,20.51,0,0,0-.36-4.61c1.47,2.66,2,6.62,2.92,12.82a76,76,0,0,1-1.16,27.32C6753.29,6804.28,6750.62,6804.7,6750.21,6778.16Z" transform="translate(-6701.5 -6769.11)"/><path class="cls-1" d="M6747.64,6771c-3.78-2.83-7.43-1-27.34.57-2.25.18-4,.29-5.3.38l2.18-.38c27.48-4.8,30.8-1.28,31.73,0a5.43,5.43,0,0,1,.94,2A7.8,7.8,0,0,0,6747.64,6771Z" transform="translate(-6701.5 -6769.11)"/><path class="cls-1" d="M6744.32,6873.61c-9.25-.38-12.11-2.29-10.6-11.18a75.69,75.69,0,0,1,8.73-24.34,91.92,91.92,0,0,0,9-23.88l.12-.52c0,.17-.06.34-.1.52a79.9,79.9,0,0,1-8.67,23.88,77.74,77.74,0,0,0-8.4,24.34c-1.45,8.89,1.3,10.8,10.2,11.18a55.73,55.73,0,0,1,6.84,1.13c-.06.75-.12,1.51-.17,2.26h0l.18-2.26A60,60,0,0,0,6744.32,6873.61Z" transform="translate(-6701.5 -6769.11)"/><path class="cls-1" d="M6714.86,6873.66h0a13.69,13.69,0,0,1-1.57,0h-.11C6713.77,6873.63,6714.32,6873.63,6714.86,6873.66Z" transform="translate(-6701.5 -6769.11)"/><path class="cls-1" d="M6718.35,6848.4a42,42,0,0,0-6.29-12.32c-6.13-9.5-10.28-26.07-10.41-40.05.93,14,6.16,30.67,12,40.05a42,42,0,0,1,6,12.32,82.76,82.76,0,0,1,3.26,17c.48,5.49-2.22,8.58-8,8.29,5-.28,7.29-3.29,6.83-8.29A79.14,79.14,0,0,0,6718.35,6848.4Z" transform="translate(-6701.5 -6769.11)"/><path class="cls-1" d="M6709.48,6772.7c1-.58,1.24-.49,5.52-.76a63.48,63.48,0,0,0-6.38,1.32A8.46,8.46,0,0,1,6709.48,6772.7Z" transform="translate(-6701.5 -6769.11)"/><path class="cls-1" d="M6707.33,6773.84a4.16,4.16,0,0,1,1.29-.58c-5,3.68-7.07,12.53-7,22.77C6701,6786.19,6702.46,6777.65,6707.33,6773.84Z" transform="translate(-6701.5 -6769.11)"/><path class="cls-1" d="M6703.7,6874.6c3.17-.34,6.37-1.08,9.52-1-2.52.11-5.07.67-7.61,1,.11.8.22,1.6.32,2.4H6704C6703.93,6876.2,6703.81,6875.4,6703.7,6874.6Z" transform="translate(-6701.5 -6769.11)"/><g id="beer_lever" data-name="beer lever"><path class="cls-2" d="M6719.73,6842.64c2.4,1.86,5.87,4.47,10.25,4.12,5.08-.4,8.47-4.53,10.26-6.7,1.19-1.44,2.71-4.93,5.69-11.85a70.54,70.54,0,0,0,3.42-8.76,54.24,54.24,0,0,0,1.71-8.24,56,56,0,0,0,.57-9.27c0-.45-.05-1.21-.22-3.11-.63-7.12-1.57-12.63-2.06-15.31-.83-4.58-1.25-6.88-1.71-7.4-3.08-3.57-9.34-1.75-19.37-1a119.52,119.52,0,0,1-19.93-.17l-1.14,2.85a110.86,110.86,0,0,0-2.28,20.5c-.12,6.23-.27,12.61,1.71,20.61C6708.43,6826.21,6711,6835.84,6719.73,6842.64Z" transform="translate(-6701.5 -6769.11)"/><path class="cls-3" d="M6710.05,6780.17c-5,2.58-3.59,22.55-2.28,22.72.61.08.46-4.39,3.41-12.78,1.69-4.79,3.25-7.65,2.28-9.23A2.67,2.67,0,0,0,6710.05,6780.17Z" transform="translate(-6701.5 -6769.11)"/></g></svg>