<svg id="beer1" xmlns="http://www.w3.org/2000/svg" viewBox="0 0 52 107.88"><defs><style>.cls-1{fill:#e8e8e8;}</style></defs><title>glass</title><path class="cls-1" d="M6804.55,6776.49c.41,26.55,3.08,26.12,1.39,35.53,0,.19-.08.36-.12.52a91.46,91.46,0,0,1-9,23.88,75.44,75.44,0,0,0-8.74,24.35c-1.51,8.89,1.35,10.79,10.61,11.18a58.34,58.34,0,0,1,7.13,1.12c-.06.75-.13,1.51-.18,2.26h-45.34c-.11-.8-.22-1.6-.32-2.4,2.53-.28,5.08-.84,7.6-.94h.12a13.7,13.7,0,0,0,1.57,0c5.81.29,8.51-2.79,8-8.29a82.74,82.74,0,0,0-3.25-17,42.19,42.19,0,0,0-6.05-12.32c-5.82-9.38-11.06-26-12-40.05h0c-.1-10.24,2-19.08,7-22.76a63.37,63.37,0,0,1,6.38-1.33c1.33-.08,3.05-.2,5.3-.38,19.91-1.6,23.56-3.4,27.35-.57a8.15,8.15,0,0,1,2.21,2.56A20.51,20.51,0,0,1,6804.55,6776.49Z" transform="translate(-6755.83 -6767.45)"/><path class="cls-1" d="M6804.55,6776.49a20.51,20.51,0,0,0-.36-4.61c1.47,2.66,2,6.63,2.91,12.82a75.76,75.76,0,0,1-1.16,27.32C6807.63,6802.61,6805,6803,6804.55,6776.49Z" transform="translate(-6755.83 -6767.45)"/><path class="cls-1" d="M6802,6769.32c-3.79-2.83-7.44-1-27.35.57-2.25.18-4,.3-5.3.38l2.18-.38c27.49-4.79,30.8-1.27,31.74,0a5.77,5.77,0,0,1,.94,2A8.15,8.15,0,0,0,6802,6769.32Z" transform="translate(-6755.83 -6767.45)"/><path class="cls-1" d="M6798.66,6872c-9.26-.39-12.12-2.29-10.61-11.18a75.44,75.44,0,0,1,8.74-24.35,91.46,91.46,0,0,0,9-23.88c0-.16.08-.33.12-.52,0,.18-.06.35-.1.52a79.9,79.9,0,0,1-8.67,23.88,77.69,77.69,0,0,0-8.39,24.35c-1.46,8.89,1.29,10.79,10.19,11.18a54.29,54.29,0,0,1,6.85,1.12c-.07.75-.12,1.51-.18,2.26h0c.05-.75.12-1.51.18-2.26A58.34,58.34,0,0,0,6798.66,6872Z" transform="translate(-6755.83 -6767.45)"/><path class="cls-1" d="M6769.2,6872h0a13.7,13.7,0,0,1-1.57,0h-.12Q6768.38,6872,6769.2,6872Z" transform="translate(-6755.83 -6767.45)"/><path class="cls-1" d="M6772.68,6846.73a42.28,42.28,0,0,0-6.28-12.32c-6.13-9.49-10.29-26.07-10.42-40.05.93,14,6.17,30.67,12,40.05a42.19,42.19,0,0,1,6.05,12.32,82.74,82.74,0,0,1,3.25,17c.48,5.5-2.22,8.58-8,8.29,5-.28,7.28-3.28,6.83-8.29A79.15,79.15,0,0,0,6772.68,6846.73Z" transform="translate(-6755.83 -6767.45)"/><path class="cls-1" d="M6763.81,6771c1-.57,1.25-.49,5.52-.76a63.37,63.37,0,0,0-6.38,1.33A8,8,0,0,1,6763.81,6771Z" transform="translate(-6755.83 -6767.45)"/><path class="cls-1" d="M6761.66,6772.17a4.07,4.07,0,0,1,1.29-.57c-5,3.68-7.07,12.52-7,22.76C6755.33,6784.52,6756.79,6776,6761.66,6772.17Z" transform="translate(-6755.83 -6767.45)"/><path class="cls-1" d="M6758,6872.93c3.17-.33,6.36-1.07,9.51-.94-2.52.1-5.07.66-7.6.94.1.8.21,1.6.32,2.4h-1.9Z" transform="translate(-6755.83 -6767.45)"/></svg>