<svg id="mask3" xmlns="http://www.w3.org/2000/svg" viewBox="0 0 46.79 47.63"><defs><style>.cls-1{fill:#c7af41;}</style></defs><title>mask3</title><g id="beerlvl1"><path class="cls-1" d="M7221.82,7181a37.37,37.37,0,0,1-4.38.13c-2.95-.06-5.89-.33-8.82-.67-7.27,1-14.56,2.59-21.89,2.55a31.8,31.8,0,0,1-11.5-2c-.1,5.8-.11,11.83,1.73,19.24s4.33,16.9,13.1,23.7c2.4,1.86,5.87,4.47,10.26,4.12,5.07-.4,8.46-4.52,10.25-6.7,1.19-1.44,2.71-4.93,5.7-11.85a72.54,72.54,0,0,0,3.42-8.75,54.19,54.19,0,0,0,1.7-8.25,56,56,0,0,0,.57-9.27C7222,7182.9,7221.92,7182.3,7221.82,7181Z" transform="translate(-7175.19 -7180.49)"/></g></svg>