<svg id="mask2" xmlns="http://www.w3.org/2000/svg" viewBox="0 0 46.79 60.72"><defs><style>.cls-1{fill:#c7af41;}.cls-2{fill:#ddc252;}</style></defs><title>mask2</title><g id="beerlvl1"><path class="cls-1" d="M7221.75,7180.17c-.48-5.33-1.12-9.75-1.62-12.77-3.33.4-6.71.48-10.11.72l-2.43.17c-1,.08-2,.15-3,.19-4.27.27-8.53.46-12.81.44-3.65,0-10.18.12-15.69-1.19a113.07,113.07,0,0,0-.86,11.93c-.11,6.23-.27,12.62,1.71,20.61,1.8,7.27,4.33,16.9,13.1,23.7,2.4,1.86,5.87,4.47,10.26,4.12,5.07-.4,8.46-4.52,10.25-6.7,1.19-1.44,2.71-4.93,5.7-11.85a72.54,72.54,0,0,0,3.42-8.75,54.19,54.19,0,0,0,1.7-8.25,56,56,0,0,0,.57-9.27C7222,7182.82,7221.91,7182.07,7221.75,7180.17Z" transform="translate(-7175.19 -7167.4)"/><path class="cls-2" d="M7177.35,7168c-1.09,6.74-.14,16.11.75,16.22.62.08.47-4.39,3.42-12.78.35-1,.7-1.92,1-2.76A47.53,47.53,0,0,1,7177.35,7168Z" transform="translate(-7175.19 -7167.4)"/></g></svg>